{"asset":{"version":"2.0","generator":"Unity 6000.0.36f1 glTFast 6.10.1"},"nodes":[{"name":"GEMS","mesh":0},{"name":"RING","mesh":1},{"name":"RingAndDiamonds","children":[0,1]}],"buffers":[{"uri":"RingAndDiamonds.bin","byteLength":3168504}],"bufferViews":[{"buffer":0,"byteLength":47112,"target":34963},{"buffer":0,"byteLength":304944,"byteOffset":47112,"target":34963},{"buffer":0,"byteLength":282672,"byteOffset":352056,"byteStride":24,"target":34962},{"buffer":0,"byteLength":94224,"byteOffset":634728,"byteStride":8,"target":34962},{"buffer":0,"byteLength":1829664,"byteOffset":728952,"byteStride":24,"target":34962},{"buffer":0,"byteLength":609888,"byteOffset":2558616,"byteStride":8,"target":34962}],"accessors":[{"bufferView":2,"componentType":5126,"count":11778,"type":"VEC3","max":[0.9985572,0.9854263,0.494736016],"min":[-0.998541951,0.02869904,0.0835851]},{"bufferView":2,"componentType":5126,"count":11778,"type":"VEC3","byteOffset":12},{"bufferView":3,"componentType":5126,"count":11778,"type":"VEC2"},{"bufferView":0,"componentType":5125,"count":11778,"type":"SCALAR"},{"bufferView":4,"componentType":5126,"count":76236,"type":"VEC3","max":[0.988616347,0.962529659,0.5004577],"min":[-0.988051057,-0.9706867,0.07483034]},{"bufferView":4,"componentType":5126,"count":76236,"type":"VEC3","byteOffset":12},{"bufferView":5,"componentType":5126,"count":76236,"type":"VEC2"},{"bufferView":1,"componentType":5125,"count":76236,"type":"SCALAR"}],"materials":[{"name":"DefaultMaterial","pbrMetallicRoughness":{"baseColorFactor":[0.8,0.8,0.8,1],"metallicFactor":0}}],"meshes":[{"name":"GEMS","primitives":[{"attributes":{"POSITION":0,"NORMAL":1,"TEXCOORD_0":2},"indices":3,"material":0}]},{"name":"RING","primitives":[{"attributes":{"POSITION":4,"NORMAL":5,"TEXCOORD_0":6},"indices":7,"material":0}]}],"scene":0,"scenes":[{"name":"RingAndDiamonds","nodes":[2]}]}